HIERARCHY
ROOT Hips
{
	OFFSET 0.00000 0.00000 0.00000
	CHANNELS 6 Xposition Yposition Zposition Zrotation Yrotation Xrotation 
	JOINT LHipJoint
	{
		OFFSET 0 0 0
		CHANNELS 3 Zrotation Yrotation Xrotation
		JOINT LeftHip
		{
			OFFSET 2.36090 -1.39315 1.24752
			CHANNELS 3 Zrotation Yrotation Xrotation
			JOINT LeftKnee
			{
				OFFSET 2.06810 -5.68207 0.00000
				CHANNELS 3 Zrotation Yrotation Xrotation
				JOINT LeftAnkle
				{
					OFFSET 2.46631 -6.77613 0.00000
					CHANNELS 3 Zrotation Yrotation Xrotation
					JOINT LeftToe
					{
						OFFSET 0.26031 -0.71520 1.99545
						CHANNELS 3 Zrotation Yrotation Xrotation
						End Site
						{
							OFFSET 0.00000 -0.00000 1.05957
						}
					}
				}
			}
		}
	}
	JOINT RHipJoint
	{
		OFFSET 0 0 0
		CHANNELS 3 Zrotation Yrotation Xrotation
		JOINT RightHip
		{
			OFFSET -2.25243 -1.39315 1.24752
			CHANNELS 3 Zrotation Yrotation Xrotation
			JOINT RightKnee
			{
				OFFSET -2.17343 -5.97145 0.00000
				CHANNELS 3 Zrotation Yrotation Xrotation
				JOINT RightAnkle
				{
					OFFSET -2.52372 -6.93386 0.00000
					CHANNELS 3 Zrotation Yrotation Xrotation
					JOINT RightToe
					{
						OFFSET -0.22538 -0.61923 2.11447
						CHANNELS 3 Zrotation Yrotation Xrotation
						End Site
						{
							OFFSET -0.00000 -0.00000 1.10506
						}
					}
				}
			}
		}
	}
	JOINT lowerback
	{
		OFFSET 0 0 0
		CHANNELS 3 Zrotation Yrotation Xrotation
		JOINT Chest
		{
			OFFSET 0.01594 2.13103 0.08007
			CHANNELS 3 Zrotation Yrotation Xrotation
			JOINT Chest2
			{
				OFFSET 0.01393 2.09723 0.18338
				CHANNELS 3 Zrotation Yrotation Xrotation
				JOINT lowerneck
				{
					OFFSET 0 0 0
					CHANNELS 3 Zrotation Yrotation Xrotation
					JOINT Neck
					{
						OFFSET 0.05351 1.38915 0.32494
						CHANNELS 3 Zrotation Yrotation Xrotation
						JOINT Head
						{
							OFFSET 0.00711 1.45992 -0.21666
							CHANNELS 3 Zrotation Yrotation Xrotation
							End Site
							{
								OFFSET -0.00433 1.47702 -0.11056
							}
						}
					}
				}
				JOINT LeftCollar
				{
					OFFSET 0 0 0
					CHANNELS 3 Zrotation Yrotation Xrotation
					JOINT LeftShoulder
					{
						OFFSET 2.87198 0.92249 0.11132
CHANNELS 3 Zrotation Xrotation Yrotation
						JOINT LeftElbow
						{
OFFSET 0 -5.527310 0.000000
CHANNELS 3 Zrotation Xrotation Yrotation
							JOINT LeftWrist
							{
OFFSET 0 -3.110590 0.000000
CHANNELS 3 Zrotation Xrotation Yrotation
								JOINT lhand
								{
									OFFSET 0 0 0
CHANNELS 3 Zrotation Xrotation Yrotation
									JOINT LFingers
									{
OFFSET 0 -0.419630 0.000000
CHANNELS 3 Zrotation Xrotation Yrotation
										End Site
										{
OFFSET 0 -0.338310 0.000000
										}
									}
								}
								JOINT LThumb
								{
OFFSET 0 0.000000 0.000000
CHANNELS 3 Zrotation Xrotation Yrotation
									End Site
									{
OFFSET 0 -0.343480 0.343480
									}
								}
							}
						}
					}
				}
				JOINT RightCollar
				{
					OFFSET 0 0 0
					CHANNELS 3 Zrotation Yrotation Xrotation
					JOINT RightShoulder
					{
						OFFSET -2.94710 0.68072 0.32187
CHANNELS 3 Zrotation Xrotation Yrotation
						JOINT RightElbow
						{
OFFSET 0 -5.253960 -0.000000
CHANNELS 3 Zrotation Xrotation Yrotation
							JOINT RightWrist
							{
OFFSET 0 -3.105670 0.000000
CHANNELS 3 Zrotation Xrotation Yrotation
								JOINT rhand
								{
									OFFSET 0 0 0
CHANNELS 3 Zrotation Xrotation Yrotation
									JOINT RFingers
									{
OFFSET 0 -0.498680 0.000000
CHANNELS 3 Zrotation Xrotation Yrotation
										End Site
										{
OFFSET 0 -0.402040 0.000000
										}
									}
								}
								JOINT RThumb
								{
OFFSET 0 0.000000 0.000000
CHANNELS 3 Zrotation Xrotation Yrotation
									End Site
									{
OFFSET 0 -0.408180 0.408180
									}
								}
							}
						}
					}
				}
			}
		}
	}
}
MOTION
Frames: 8
Frame Time: .0083333
1.5715 15.6959 31.6353 -150.6470 -82.8170 168.3600 0.0000 0.0000 0.0000 0.0000 0.0000 0.0000 0.0000 0.0000 0.0000 0.0000 0.0000 0.0000 0.0000 0.0000 0.0000 0.0000 0.0000 0.0000 22.3735 27.7715 -19.3375 -1.9075 -8.6707 24.7706 -0.3598 -6.0577 -15.1652 -0.0634 -1.6244 4.4686 1.0201 0.8947 -27.0036 1.8605 -0.0203 -7.6140 1.4192 -0.3161 6.4684 6.3740 4.9676 -20.5281 -2.4416 5.3792 26.5240 -1.1215 2.6074 12.4608 0.0000 -0.0000 0.0000 8.4698 10.8925 -45.2057 16.3613 -26.0081 3.803 29.3895 -33.0704 -3.8542 0.0 0.0 0.0 -7.1250 0.0 0.0 2.2769 34.3943 0.593 0.0000 -0.0000 0.0000 -4.751 17.3193 23.0276 -12.2107 -20.1199 -2.1742 -20.3208 -4.8453 29.3578 0.0 0.0 0.0 7.1250 0.0 -0.0 12.4577 60.5053 -4.753
1.5762 15.6961 31.6366 -150.7850 -82.7749 168.4970 0.0000 0.0000 0.0000 0.0000 0.0000 0.0000 0.0000 0.0000 0.0000 0.0000 0.0000 0.0000 0.0000 0.0000 0.0000 0.0000 0.0000 0.0000 22.3654 27.7633 -19.3767 -1.9078 -8.6714 24.7727 -0.3596 -6.0009 -15.1130 -0.0601 -1.5813 4.3498 1.0033 0.8689 -26.9609 1.8850 -0.0503 -7.6185 1.4461 -0.3306 6.4430 6.4204 5.0240 -20.5685 -2.4302 5.4386 26.5419 -1.1137 2.6398 12.4806 -0.0000 -0.0000 0.0000 8.4793 10.9663 -45.356 16.3972 -26.0562 3.8188 29.5036 -33.2491 -3.8418 0.0 0.0 0.0 -7.1250 0.0 0.0 2.3712 34.3845 0.6182 -0.0000 -0.0000 0.0000 -4.8364 17.1881 22.4406 -12.0783 -19.922 -2.1289 -20.1866 -4.5409 28.9265 0.0 0.0 0.0 7.1250 0.0 -0.0 12.3352 60.0455 -4.57
1.5810 15.6969 31.6368 -151.1110 -82.7384 168.8110 0.0000 0.0000 0.0000 0.0000 0.0000 0.0000 0.0000 0.0000 0.0000 0.0000 0.0000 0.0000 0.0000 0.0000 0.0000 0.0000 0.0000 0.0000 22.3330 27.7801 -19.4082 -1.9141 -8.6848 24.8142 -0.3644 -5.9356 -15.1212 -0.0669 -1.6692 4.5922 0.9580 0.8381 -26.9170 1.8963 -0.0768 -7.6139 1.4759 -0.3430 6.4272 6.4928 5.0680 -20.5607 -2.4394 5.4803 26.5030 -1.1218 2.6652 12.4689 -0.0000 0.0000 0.0000 8.5 11.0387 -45.5285 16.4388 -26.1121 3.8371 29.5795 -33.262 -3.9274 0.0 0.0 0.0 -7.1250 0.0 0.0 2.4341 34.4855 0.6286 -0.0000 0.0000 0.0000 -4.8932 17.0851 21.965 -11.9776 -19.7711 -2.0947 -20.2699 -4.4118 28.3637 0.0 0.0 0.0 7.1250 0.0 -0.0 11.9031 59.5053 -4.2533
1.5852 15.6968 31.6361 -151.7270 -82.6991 169.3880 0.0000 0.0000 0.0000 0.0000 0.0000 0.0000 0.0000 0.0000 0.0000 0.0000 0.0000 0.0000 0.0000 0.0000 0.0000 0.0000 0.0000 0.0000 22.2837 27.7466 -19.4298 -1.9202 -8.6978 24.8546 -0.3689 -5.8470 -15.1067 -0.0660 -1.6575 4.5599 0.8385 0.8107 -26.8415 1.9021 -0.0774 -7.6110 1.5505 -0.3427 6.3931 6.4179 5.1021 -20.6714 -2.3232 5.5134 26.5869 -1.0572 2.6867 12.5199 0.0000 0.0000 0.0000 8.5321 11.11 -45.6912 16.4732 -26.158 3.8522 29.3884 -33.5237 -3.8701 0.0 0.0 0.0 -7.1250 0.0 0.0 2.2760 34.4124 0.5918 0.0000 0.0000 0.0000 -5.0807 17.1369 22.2335 -12.0491 -19.8783 -2.119 -20.3914 -4.9372 28.0631 0.0 0.0 0.0 7.1250 0.0 -0.0 11.5948 59.2336 -4.0657
1.5896 15.6969 31.6357 -152.2180 -82.6581 169.8500 0.0000 0.0000 0.0000 0.0000 0.0000 0.0000 0.0000 0.0000 0.0000 0.0000 0.0000 0.0000 0.0000 0.0000 0.0000 0.0000 0.0000 0.0000 22.2435 27.7297 -19.4622 -1.9276 -8.7135 24.9033 -0.3732 -5.7683 -15.0980 -0.0662 -1.6605 4.5682 0.7474 0.7807 -26.7773 1.9151 -0.0902 -7.6082 1.6128 -0.3484 6.3647 6.3458 5.1421 -20.7632 -2.2176 5.5584 26.6509 -0.9951 2.7127 12.5602 -0.0000 0.0000 0.0000 8.5525 11.1899 -45.8723 16.5174 -26.2171 3.8717 29.3119 -33.7084 -3.8722 0.0 0.0 0.0 -7.1250 0.0 0.0 2.2129 34.4119 0.5754 -0.0000 0.0000 0.0000 -5.2584 17.1597 22.4233 -12.0919 -19.9423 -2.1335 -20.4419 -5.3284 27.7561 0.0 0.0 0.0 7.1250 0.0 -0.0 11.3648 58.9381 -3.9031
1.5939 15.6968 31.6352 -152.7330 -82.6165 170.3340 0.0000 0.0000 0.0000 0.0000 0.0000 0.0000 0.0000 0.0000 0.0000 0.0000 0.0000 0.0000 0.0000 0.0000 0.0000 0.0000 0.0000 0.0000 22.2019 27.7084 -19.4939 -1.9356 -8.7306 24.9563 -0.3780 -5.6868 -15.0930 -0.0661 -1.6591 4.5645 0.6520 0.7531 -26.7100 1.9235 -0.0983 -7.6045 1.6740 -0.3517 6.3360 6.2596 5.1773 -20.8664 -2.0980 5.5967 26.7253 -0.9262 2.7360 12.6056 -0.0000 -0.0000 0.0000 8.5815 11.2745 -46.0757 16.5671 -26.2835 3.8937 29.2134 -33.9079 -3.8728 0.0 0.0 0.0 -7.1250 0.0 0.0 2.1315 34.4089 0.5544 -0.0000 -0.0000 0.0000 -5.4656 17.2313 22.8794 -12.1953 -20.0969 -2.1689 -20.4759 -5.9154 27.5491 0.0 0.0 0.0 7.1250 0.0 -0.0 11.2125 58.7385 -3.7961
1.5981 15.6967 31.6346 -153.2110 -82.5745 170.7830 0.0000 0.0000 0.0000 0.0000 0.0000 0.0000 0.0000 0.0000 0.0000 0.0000 0.0000 0.0000 0.0000 0.0000 0.0000 0.0000 0.0000 0.0000 22.1652 27.6835 -19.5198 -1.9418 -8.7437 24.9969 -0.3822 -5.6065 -15.0834 -0.0657 -1.6543 4.5511 0.5616 0.7297 -26.6442 1.9291 -0.1021 -7.5997 1.7306 -0.3529 6.3088 6.1754 5.2048 -20.9639 -1.9764 5.6227 26.7910 -0.8590 2.7544 12.6457 0.0000 -0.0000 0.0000 8.6158 11.3599 -46.2989 16.6199 -26.3539 3.9171 29.0919 -34.1168 -3.8723 0.0 0.0 0.0 -7.1250 0.0 0.0 2.0311 34.4036 0.5285 0.0000 -0.0000 0.0000 -5.6994 17.3422 23.5567 -12.3542 -20.3337 -2.2238 -20.4572 -6.6526 27.4522 0.0 0.0 0.0 7.1250 0.0 -0.0 11.1794 58.6371 -3.7575
1.6022 15.6967 31.6341 -153.6000 -82.5327 171.1460 0.0000 0.0000 0.0000 0.0000 0.0000 0.0000 0.0000 0.0000 0.0000 0.0000 0.0000 0.0000 0.0000 0.0000 0.0000 0.0000 0.0000 0.0000 22.1389 27.6570 -19.5414 -1.9458 -8.7524 25.0237 -0.3859 -5.5291 -15.0693 -0.0658 -1.6544 4.5516 0.4866 0.7125 -26.5832 1.9306 -0.1018 -7.5935 1.7752 -0.3520 6.2855 6.1221 5.2236 -21.0424 -1.8757 5.6330 26.8330 -0.8080 2.7667 12.6736 0.0000 0.0000 0.0000 8.6605 11.4437 -46.5464 16.6738 -26.4258 3.9411 28.965 -34.3104 -3.8764 0.0 0.0 0.0 -7.1250 0.0 0.0 1.9264 34.4035 0.5012 0.0000 0.0000 0.0000 -5.9468 17.4812 24.3974 -12.5602 -20.6394 -2.2959 -20.3675 -7.4838 27.4537 0.0 0.0 0.0 7.1250 0.0 -0.0 11.2773 58.6183 -3.7858
